<svg xmlns="http://www.w3.org/2000/svg" height="250" width="235.5" viewBox="0 0 235.5 252"><g transform="translate(.90975 1.0903)"><path fill="#ffc72c" d="m34.1 0v25.5h13.301v47.699c-4.9 1.8-9.4012 3.7004-13.701 5.9004-21.401 11.101-33.7 27.101-33.7 44.101s12.299 33.002 33.699 44.102c4.2 2.2 8.8012 4.1984 13.701 5.8984v18.801c0 34.2 26.7 58 65 58h10.4c38.3 0 65-23.9 65-58v-14.699c17.4-3.9 32.198-9.4 44.398-16.5l-17.398-23.5c-0.2 0.1-0.3 0.19883-0.5 0.29883-6.2 3.3-14.8 6.8008-26.4 9.8008v-48.301c11.6 3 20.2 6.5008 26.4 9.8008 0.6 0.3 1.0992 0.60039 1.6992 0.90039l17.5-23.4c-12.4-7.5-27.7-13.201-45.6-17.201v-43.699h13.299v-25.5h-55.699v25.5h13.301v39.1c-8.5-0.9-17.401-1.4988-26.701-1.7988v-5.8008h13.4v-25.4h-55.699v25.4h13.398v5.8008c-9.401 0.5-18.3 1.399-26.7 2.799v-40.1h13.301v-25.5h-55.701zm98 91.801c9.8 0.4 18.701 1.1 26.701 2v58.799c-8 1-16.901 1.7-26.701 2v-62.799zm-28.9 0.199v62.5c-10.201-0.6-19.1-1.8-26.7-3.3v-56c7.6-1.501 16.399-2.7 26.7-3.2zm-55.799 12.9v36.9c-0.101-0.2-0.201-0.3-0.401-0.3-12.4-6.4-18-13.8-18-18.2 0-4.5 5.6-11.901 18-18.201 0.1-0.1 0.30039-0.0992 0.40039-0.19922zm29 75.799c8.4 1.4 17.299 2.4008 26.699 2.8008v5.9004h-13.299v25.5h55.699v-25.5h-13.4v-5.7012c9.4-0.3 18.301-0.89883 26.701-1.7988v10.1c0 14-9.5 29-36 29h-10.4c-26.5 0-36-15-36-29v-11.301z"/><path fill="#0c2340" d="m39.301 4.5996v16.201h13.299v50.6c5.8-1.9 12-3.5012 18.6-4.7012v-45.799h13.301v-16.301h-45.199zm111.4 0v16.201h13.4v44.299c6.5 0.8 12.7 1.8 18.6 3v-47.199h13.301v-16.301h-45.301zm-55.7 31.599v16.201h13.4v141.7h-13.4v16.201h45.301v-16.201h-13.4v-141.7h13.4v-16.201h-45.301zm37.1 31.801v18.6c41.3 1.4 67 8.9008 82.9 16.801l11.3-15.099c-22.7-12.2-54.3-19.001-94.2-20.301zm-28.9 0.09961c-26.7 1.4-49.7 6.7012-67 15.701-19.7 10.1-31 24.498-31 39.398s11.3 29.3 30.9 39.4c17.3 8.9 40.3 14.301 67 15.701v-18.602h0.0996c-54-3-79.299-22.8-79.299-36.5s25.299-33.4 79.299-36.5v-18.6zm60.9 26.301v57.5c6.9-1 13-2.1004 18.6-3.4004v-50.699c-5.6-1.3-11.7-2.4004-18.6-3.4004zm-92.9 2c-7.5 1.8-13.6 3.9-18.6 6v41.699c4.9 2.1 11.1 4.2 18.6 6v-53.699zm142.6 47.199c-16 7.8-41.501 14.901-81.701 16.301v18.6c39.2-1.3 70.4-7.8992 93-19.699l-11.299-15.201zm-161.1 31.5v17c0 31.1 24.601 52.801 59.801 52.801h10.4c35.2 0 59.799-21.701 59.799-52.801v-13.699c-6 1.1-12.1 2.1004-18.6 2.9004v10.699c0 25.2-22.199 34.199-41.199 34.199h-10.4c-30.4 0-41.199-18.4-41.199-34.2v-12.199c-6.6-1.3-12.802-2.9012-18.602-4.7012z"/></g></svg>
