<?xml version="1.0" encoding="utf-8"?>
<!-- Generator: Adobe Illustrator 19.2.1, SVG Export Plug-In . SVG Version: 6.00 Build 0)  -->
<svg version="1.1" id="layer" xmlns="http://www.w3.org/2000/svg" xmlns:xlink="http://www.w3.org/1999/xlink" x="0px" y="0px"
	 viewBox="0 0 652 652" style="enable-background:new 0 0 652 652;" xml:space="preserve">
<style type="text/css">
	.st0{fill:#0064A4;}
</style>
<g>
	<g>
		<path class="st0" d="M303,294.3c0,9.3-5.3,14.2-13.3,14.2c-7.9,0-13.3-4.8-13.3-13.9V276h3.6v18.4c0,6.9,3.7,10.8,9.8,10.8
			c5.9,0,9.6-3.6,9.6-10.6V276h3.6V294.3z"/>
		<path class="st0" d="M313.6,307.9H310v-23.6h3.5v4.1c1.6-2.6,4-4.6,8.1-4.6c5.7,0,9,3.8,9,9.5v14.7h-3.5v-13.8
			c0-4.4-2.4-7.1-6.5-7.1c-4.1,0-7.1,3-7.1,7.4V307.9z"/>
		<path class="st0" d="M337.4,279.2v-3.9h4v3.9H337.4z M337.6,307.9v-23.6h3.5v23.6H337.6z"/>
		<path class="st0" d="M365.9,284.3h3.8l-10.3,23.8h-3.1L346,284.3h3.9l7.9,19.6L365.9,284.3z"/>
		<path class="st0" d="M383.3,305.4c3.2,0,5.5-1.3,7.4-3.3l2.2,2c-2.4,2.6-5.3,4.4-9.7,4.4c-6.5,0-11.8-5-11.8-12.3
			c0-6.9,4.8-12.3,11.3-12.3c7,0,11,5.6,11,12.5c0,0.3,0,0.7,0,1.1H375C375.5,302.5,379.1,305.4,383.3,305.4z M390.2,294.8
			c-0.4-4.3-2.8-8-7.5-8c-4.1,0-7.2,3.4-7.7,8H390.2z"/>
		<path class="st0" d="M402.5,307.9H399v-23.6h3.5v6.2c1.7-3.9,5.2-6.8,9.6-6.6v3.8h-0.3c-5.2,0-9.4,3.7-9.4,10.8V307.9z"/>
		<path class="st0" d="M424.4,308.4c-3.4,0-7.1-1.3-9.8-3.5l1.8-2.5c2.6,1.9,5.4,3,8.2,3c2.8,0,4.9-1.5,4.9-3.7v-0.1
			c0-2.4-2.8-3.3-5.9-4.2c-3.7-1.1-7.8-2.3-7.8-6.7v-0.1c0-4.1,3.4-6.8,8-6.8c2.9,0,6.1,1,8.5,2.6l-1.6,2.6c-2.2-1.4-4.7-2.3-7-2.3
			c-2.8,0-4.6,1.5-4.6,3.4v0.1c0,2.2,2.9,3.1,6.1,4.1c3.7,1.1,7.6,2.5,7.6,6.8v0.1C432.8,305.8,429.1,308.4,424.4,308.4z"/>
		<path class="st0" d="M438.5,279.2v-3.9h4v3.9H438.5z M438.7,307.9v-23.6h3.5v23.6H438.7z"/>
		<path class="st0" d="M454.3,301.2c0,2.9,1.6,3.9,4,3.9c1.2,0,2.2-0.2,3.4-0.8v3c-1.2,0.6-2.6,1-4.2,1c-3.8,0-6.7-1.9-6.7-6.7
			v-14.3h-3.3v-3.1h3.3v-7.1h3.5v7.1h7.5v3.1h-7.5V301.2z"/>
		<path class="st0" d="M478.6,308.7c-2,4.9-4.3,6.7-7.9,6.7c-2,0-3.4-0.4-5-1.2l1.2-2.8c1.1,0.6,2.2,0.9,3.7,0.9
			c2.1,0,3.4-1.1,4.8-4.4l-10.7-23.5h3.9l8.6,19.7l7.6-19.7h3.7L478.6,308.7z"/>
		<path class="st0" d="M516.7,308.5c-7.1,0-12.2-5.6-12.2-12.3s5.2-12.4,12.3-12.4c7.1,0,12.3,5.6,12.3,12.3
			S523.8,308.5,516.7,308.5z M516.7,286.9c-5.1,0-8.6,4.1-8.6,9.2c0,5.1,3.7,9.2,8.7,9.2c5.1,0,8.7-4.1,8.7-9.1
			C525.5,291,521.7,286.9,516.7,286.9z"/>
		<path class="st0" d="M546.8,284.4v3h-7.4v20.5h-3.5v-20.5h-3.2v-3.1h3.2v-2.1c0-5.2,2.6-7.9,7.1-7.9c1.6,0,2.7,0.2,3.9,0.6v3.1
			c-1.3-0.4-2.2-0.6-3.4-0.6c-2.7,0-4.1,1.6-4.1,5v1.9L546.8,284.4L546.8,284.4z"/>
		<path class="st0" d="M291.5,361.8c-9.2,0-16-7.3-16-16.5c0-9.1,6.8-16.6,16.2-16.6c5.8,0,9.3,2.1,12.5,5.1l-2.5,2.6
			c-2.7-2.6-5.7-4.4-10.1-4.4c-7.1,0-12.4,5.7-12.4,13.2c0,7.4,5.3,13.2,12.4,13.2c4.4,0,7.3-1.7,10.3-4.6l2.4,2.3
			C301,359.5,297.3,361.8,291.5,361.8z"/>
		<path class="st0" d="M310.5,342.1l-1.1-2.9c2.6-1.2,5.2-2,8.6-2c6.4,0,10.1,3.3,10.1,9.5v14.4h-3.4v-3.6c-1.6,2.1-4.4,4.1-8.5,4.1
			c-4.4,0-8.8-2.5-8.8-7.4c0-5,4.1-7.7,10.1-7.7c3,0,5.2,0.4,7.3,1v-0.8c0-4.2-2.6-6.4-7-6.4C314.8,340.4,312.6,341.1,310.5,342.1z
			 M310.9,354.2c0,3,2.7,4.8,5.9,4.8c4.3,0,7.9-2.6,7.9-6.4v-2.3c-1.7-0.5-4.1-1-6.9-1C313.3,349.3,310.9,351.2,310.9,354.2z"/>
		<path class="st0" d="M334.9,361.2v-33.4h3.5v33.4H334.9z"/>
		<path class="st0" d="M345.8,332.4v-3.9h4v3.9L345.8,332.4L345.8,332.4z M346,361.2v-23.6h3.5v23.6H346z"/>
		<path class="st0" d="M369.1,337.7v3h-7.4v20.5h-3.5v-20.5h-3.2v-3.1h3.2v-2.1c0-5.2,2.6-7.9,7.1-7.9c1.6,0,2.7,0.2,3.9,0.6v3.1
			c-1.3-0.4-2.2-0.6-3.4-0.6c-2.7,0-4.1,1.6-4.1,5v1.9H369.1z"/>
		<path class="st0" d="M383,361.8c-7.1,0-12.2-5.6-12.2-12.3s5.2-12.4,12.3-12.4c7.1,0,12.3,5.6,12.3,12.3S390.1,361.8,383,361.8z
			 M383,340.2c-5.1,0-8.6,4.1-8.6,9.2s3.7,9.2,8.7,9.2c5.1,0,8.7-4.1,8.7-9.1C391.8,344.3,388,340.2,383,340.2z"/>
		<path class="st0" d="M404.3,361.2h-3.5v-23.6h3.5v6.2c1.7-3.9,5.2-6.8,9.6-6.6v3.8h-0.3c-5.2,0-9.4,3.7-9.4,10.8V361.2z"/>
		<path class="st0" d="M421.9,361.2h-3.5v-23.6h3.5v4.1c1.6-2.6,4-4.6,8.1-4.6c5.7,0,9,3.8,9,9.5v14.7h-3.5v-13.8
			c0-4.4-2.4-7.1-6.5-7.1c-4.1,0-7.1,3-7.1,7.4V361.2z"/>
		<path class="st0" d="M445.7,332.4v-3.9h4v3.9L445.7,332.4L445.7,332.4z M445.9,361.2v-23.6h3.5v23.6H445.9z"/>
		<path class="st0" d="M458.1,342.1l-1.1-2.9c2.6-1.2,5.2-2,8.6-2c6.4,0,10.1,3.3,10.1,9.5v14.4h-3.4v-3.6c-1.6,2.1-4.4,4.1-8.5,4.1
			c-4.4,0-8.8-2.5-8.8-7.4c0-5,4.1-7.7,10.1-7.7c3,0,5.2,0.4,7.3,1v-0.8c0-4.2-2.6-6.4-7-6.4C462.4,340.4,460.2,341.1,458.1,342.1z
			 M458.5,354.2c0,3,2.7,4.8,5.9,4.8c4.3,0,7.9-2.6,7.9-6.4v-2.3c-1.7-0.5-4.1-1-6.9-1C460.9,349.3,458.5,351.2,458.5,354.2z"/>
		<path class="st0" d="M483.4,361.2h-1.6v-4.8h4.2v4.1c0,3.7-1.6,5.5-5.1,6.3l-0.5-1.6C482.7,364.4,483.6,363.2,483.4,361.2z"/>
		<path class="st0" d="M509.8,329.2v32h-3.6v-32H509.8z"/>
		<path class="st0" d="M521.2,361.2h-3.5v-23.6h3.5v6.2c1.7-3.9,5.2-6.8,9.6-6.6v3.8h-0.3c-5.2,0-9.4,3.7-9.4,10.8L521.2,361.2
			L521.2,361.2z"/>
		<path class="st0" d="M552.7,337.6h3.8l-10.3,23.8h-3.1l-10.2-23.8h3.9l7.9,19.6L552.7,337.6z"/>
		<path class="st0" d="M561.2,332.4v-3.9h4v3.9L561.2,332.4L561.2,332.4z M561.4,361.2v-23.6h3.5v23.6H561.4z"/>
		<path class="st0" d="M575.7,361.2h-3.5v-23.6h3.5v4.1c1.6-2.6,4-4.6,8.1-4.6c5.7,0,9,3.8,9,9.5v14.7h-3.5v-13.8
			c0-4.4-2.4-7.1-6.5-7.1c-4.1,0-7.1,3-7.1,7.4V361.2z"/>
		<path class="st0" d="M609.9,358.7c3.2,0,5.5-1.3,7.4-3.3l2.2,2c-2.4,2.6-5.3,4.4-9.7,4.4c-6.5,0-11.8-5-11.8-12.3
			c0-6.9,4.8-12.3,11.3-12.3c7,0,11,5.6,11,12.5c0,0.3,0,0.7,0,1.1h-18.7C602,355.8,605.7,358.7,609.9,358.7z M616.8,348.1
			c-0.4-4.3-2.8-8-7.5-8c-4.1,0-7.2,3.4-7.7,8H616.8z"/>
	</g>
	<g>
		<path class="st0" d="M20.3,323.8v-47.9h23.9v47.4c0,12.3,6.2,18.2,15.7,18.2c9.6,0,15.8-5.6,15.8-17.5v-48h23.9v47.3
			c0,27.4-15.7,39.6-40,39.6C35.5,362.8,20.3,350.5,20.3,323.8z"/>
		<path class="st0" d="M111.1,318.8v-0.2c0-24.9,19-44.3,44.8-44.3c17.4,0,28.6,7.3,36.2,17.7l-17.8,13.8c-4.9-6-10.5-10-18.6-10
			c-11.9,0-20.3,10.2-20.3,22.7v0.2c0,12.8,8.4,22.8,20.3,22.8c8.9,0,14.1-4.1,19.2-10.3l17.8,12.7c-8,11.1-18.9,19.2-37.6,19.2
			C130.7,362.9,111.1,344.3,111.1,318.8z"/>
		<path class="st0" d="M206,275.9h23.6v85.3H206V275.9z"/>
	</g>
</g>
</svg>
